<?xml version="1.0" encoding="utf-8"?>
<!-- Generator: Adobe Illustrator 18.1.1, SVG Export Plug-In . SVG Version: 6.00 Build 0)  -->
<svg version="1.1" id="Layer_2" xmlns="http://www.w3.org/2000/svg" xmlns:xlink="http://www.w3.org/1999/xlink" x="0px" y="0px"
	 viewBox="0 0 48.8 83.9" enable-background="new 0 0 48.8 83.9" xml:space="preserve">
<path fill="#FFFFFF" d="M23.7,83.9c-0.9-0.1-1.8-0.1-2.7-0.2c-2.2-0.2-4.3-0.3-6.5-0.6c-3.5-0.6-6.5-2.2-9.2-4.7
	c-2.1-1.9-3.7-4.2-4.6-7c-1.5-4.7-0.7-8.9,2.4-12.6c2.1-2.6,4.8-4.3,7.7-5.6c3.7-1.8,7.7-2.8,11.7-3.4c1.6-0.3,3.1-0.5,4.8-0.7
	c-3.2-3-3.7-6.5-2.2-10.7c-0.4,0-0.7,0-1,0c-3.1,0-6.1-0.5-9-1.7c-3.7-1.6-6.5-4.3-8.3-8.2c-1.4-3.1-1.8-6.4-1.5-9.8
	C5.8,14.7,7,11.2,9.2,8.1c3-4.3,6.9-6.9,11.8-7.8C22.2,0.1,23.5,0,24.7,0c7.6,0,15.1,0,22.7,0H48c-0.2,0.2-0.2,0.3-0.3,0.4
	c-1,1.2-2.1,2.4-3.1,3.6c-0.2,0.3-0.5,0.4-0.8,0.4c-1.5,0-2.9,0-4.4,0c-0.2,0-0.3,0-0.5,0c0,0,0,0.1-0.1,0.1
	c0.2,0.2,0.4,0.4,0.6,0.6c2,2.1,3.7,4.4,4.8,7.2c2.5,6.1,1.6,11.7-2.2,16.9c-1.5,2.1-3.4,3.7-5.4,5.2c-1.6,1.1-2.5,2.8-2.8,4.8
	c-0.1,0.7,0,1.3,0.3,1.9c0.7,1.7,1.8,2.9,3.3,3.9c2.9,1.8,5.5,4.2,7.5,7.1c2.8,4,4.3,8.4,3.9,13.5c-0.3,3.1-1.4,5.9-2.9,8.5
	c-2.5,4.1-6.1,6.7-10.4,8.2c-2.8,1-5.6,1.5-8.5,1.7c-0.1,0-0.3,0.1-0.4,0.1H23.7z M27,79.1c1.5-0.2,3-0.2,4.5-0.5
	c2.7-0.5,5.2-1.5,7.3-3.5c3-2.8,3.9-7.4,2.8-11.1c-0.7-2.3-2-4.1-3.7-5.6c-2-1.8-4.1-3.5-6.2-5.2c-0.6-0.5-1.2-0.7-1.8-0.7
	c-2,0.1-4,0.1-6,0.3c-3,0.3-6,1.2-8.7,2.7c-3.3,1.9-5.6,4.7-5.9,8.9c-0.2,2.9,0.4,5.6,2.1,8c1.9,2.6,4.4,4.2,7.3,5.2
	C21.3,78.6,24.2,78.9,27,79.1 M36.3,23.6c-0.1-4.6-1-8-2.3-11c-1.1-2.5-2.4-4.8-4.4-6.6c-3.1-2.7-6.5-3.2-10.1-1.5
	c-2.5,1.2-3.9,3.5-4.7,6.3c-0.8,2.7-0.7,5.6-0.3,8.4c0.6,4,1.9,7.7,4.2,10.9c2.3,3.4,5.5,5.1,9.4,4.7c2.7-0.3,4.9-1.7,6.5-4.2
	C36,28.5,36.2,26,36.3,23.6"/>
</svg>
